# AST/ASF file generated using VICON BodyLanguage
# -----------------------------------------------
:version 1.10
:name VICON
:units
  mass 1.0
  length 0.45
  angle deg
:documentation
   .ast/.asf automatically generated from VICON data using
   VICON BodyBuilder and BodyLanguage model FoxedUp or BRILLIANT.MOD
:root
   order TX TY TZ RX RY RZ
   axis XYZ
   position 0 0 0  
   orientation 0 0 0 
:bonedata
  begin
     id 1 
     name lhipjoint
     direction 0.624716 -0.669793 0.401383 
     length 2.38238 
     axis 0 0 0  XYZ
  end
  begin
     id 2 
     name lfemur
     direction 0.34202 -0.939693 0  
     length 6.4574  
     axis 0 0 20  XYZ
    dof rx ry rz
    limits (-160.0 20.0)
           (-70.0 70.0)
           (-60.0 70.0)
  end
  begin
     id 3 
     name ltibia
     direction 0.34202 -0.939693 0   
     length 7.68739   
     axis 0 0 20   XYZ
    dof rx
    limits (-10.0 170.0)
  end
  begin
     id 4 
     name lfoot
     direction 0.0681309 -0.187188 0.979959   
     length 2.46615   
     axis -90 7.62852e-016 20   XYZ
    dof rx rz
    limits (-45.0 90.0)
           (-70.0 20.0)
  end
  begin
     id 5 
     name ltoes
     direction 1.53566e-011 -4.21819e-011 1   
     length 1.2376   
     axis -90 7.62852e-016 20   XYZ
    dof rx
    limits (-90.0 20.0)
  end
  begin
     id 6 
     name rhipjoint
     direction -0.644473 -0.655875 0.393043   
     length 2.43293  
     axis 0 0 0  XYZ 
  end
  begin
     id 7 
     name rfemur
     direction -0.34202 -0.939693 0   
     length 6.7025   
     axis 0 0 -20   XYZ
    dof rx ry rz
    limits (-160.0 20.0)
           (-70.0 70.0)
           (-70.0 60.0)
  end
  begin
     id 8 
     name rtibia
     direction -0.34202 -0.939693 0   
     length 7.80547   
     axis 0 0 -20   XYZ
    dof rx
    limits (-10.0 170.0)
 end
 begin
     id 9 
     name rfoot
     direction -0.0756734 -0.207911 0.975216   
     length 2.40315  
     axis -90 -7.62852e-016 -20   XYZ
    dof rx rz
    limits (-45.0 90.0)
           (-20.0 70.0)
  end
  begin
     id 10 
     name rtoes
     direction -1.5353e-011 -4.21879e-011 1   
     length 1.20477   
     axis -90 -7.62852e-016 -20   XYZ
    dof rx
    limits (-90.0 20.0)
  end
  begin
     id 11 
     name lowerback
     direction 0.0160353 0.987463 -0.157037   
     length 2.18572   
     axis 0 0 0   XYZ
    dof rx ry rz
    limits (-20.0 45.0)
           (-30.0 30.0)
           (-30.0 30.0)
  end
  begin
     id 12 
     name upperback
     direction -0.00499661 0.999756 0.0215076   
     length 2.18016   
     axis 0 0 0   XYZ
    dof rx ry rz
    limits (-20.0 45.0)
           (-30.0 30.0)
           (-30.0 30.0)
  end
  begin
     id 13 
     name thorax
     direction -0.00921346 0.995333 0.0960619   
     length 2.24923   
     axis 0 0 0   XYZ
    dof rx ry rz
    limits (-20.0 45.0)
           (-30.0 30.0)
           (-30.0 30.0)
  end
  begin
     id 14 
     name lowerneck
     direction 0.0274184 0.991181 0.12965   
     length 1.70911   
     axis 0 0 0   XYZ
    dof rx ry rz
    limits (-20.0 45.0)
           (-30.0 30.0)
           (-30.0 30.0)
  end
  begin
     id 15 
     name upperneck
     direction 0.0015627 0.999959 -0.00893559   
     length 1.69312   
     axis 0 0 0   XYZ
    dof rx ry rz
    limits (-20.0 45.0)
           (-30.0 30.0)
           (-30.0 30.0)
  end
  begin
     id 16
     name head
     direction -0.00230242 0.999856 -0.0168327  
     length 1.80241  
     axis 0 0 0   XYZ
    dof rx ry rz
    limits (-20.0 45.0)
           (-30.0 30.0)
           (-30.0 30.0)
  end
  begin
     id 17 
     name lclavicle
     direction 0.955523 0.290741 -0.0494489  
     length 3.84275  
     axis 0 0 0   XYZ
    dof ry rz
    limits (-20.0 10.0)
           (0.0 20.0)
  end
  begin
     id 18 
     name lhumerus
     direction 1 -4.48967e-011 -3.18382e-028   
     length 5.17714   
     axis 180 -30 -90   XYZ
    dof rx ry rz
    limits (-60.0 90.0)
           (-90.0 90.0)
           (-90.0 90.0)
  end
  begin
     id 19
     name lradius
     direction 1 -4.48968e-011 -2.22911e-027   
     length 3.43679   
     axis 180 -30 -90   XYZ
    dof rx
    limits (-10.0 170.0)
  end
  begin
     id 20
     name lwrist
     direction 1 -4.48951e-011 -6.32245e-027   
     length 1.7184   
     axis 3.57107e-015 90 90   XYZ
    dof ry
    limits (-180.0 0.0)
 end
  begin
     id 21 
     name lhand
     direction 1 -4.48924e-011 -1.26431e-026   
     length 0.573117   
     axis 8.06912e-015 90 90   XYZ
    dof rx rz
    limits (-90.0 90.0)
           (-45.0 45.0)
  end
  begin
     id 22 
     name lfingers
     direction 1 -4.49001e-011 -2.52965e-026   
     length 0.462062   
     axis 1.61381e-014 90 90   XYZ
    dof rx
    limits (0.0 90.0)
  end
  begin
     id 23
     name lthumb
     direction 0.707107 -6.35008e-011 0.707107   
     length 0.663431   
     axis -90 45 -1.62303e-014   XYZ
    dof rx rz
    limits (-45.0 45.0)
           (-45.0 45.0)
  end
  begin
     id 24 
     name rclavicle
     direction -0.963917 0.256881 -0.0698287   
     length 3.73057  
     axis 0 0 0   XYZ 
    dof ry rz
    limits (-10.0 20.0)
           (-20.0 0.0)
  end
  begin
     id 25 
     name rhumerus
     direction -1 -4.48962e-011 -2.73982e-027  
     length 5.23908   
     axis 180 30 90   XYZ
    dof rx ry rz
    limits (-90.0 60.0)
           (-90.0 90.0)
           (-90.0 90.0)
  end
  begin
     id 26 
     name rradius
     direction -1 -4.48968e-011 -4.33218e-027   
     length 3.46485   
     axis 180 30 90   XYZ
    dof rx
    limits (-10.0 170.0)
  end
  begin
     id 27 
     name rwrist
     direction -1 -4.48989e-011 -6.32372e-027   
     length 1.73243   
     axis 3.57107e-015 -90 -90   XYZ
    dof ry
    limits (-180.0 0.0)
  end
  begin
     id 28
     name rhand
     direction -1 -4.48948e-011 -1.26448e-026   
     length 0.608752   
     axis 8.06912e-015 -90 -90   XYZ
    dof rx rz
    limits (-90.0 90.0)
           (-45.0 45.0)
  end
  begin
     id 29
     name rfingers
     direction -1 -4.48962e-011 -2.52913e-026   
     length 0.490792   
     axis 1.61381e-014 -90 -90   XYZ
    dof rx
    limits (0.0 90.0)
  end
  begin
     id 30
     name rthumb
     direction -0.707107 -6.34878e-011 0.707107   
     length 0.704682   
     axis -90 -45 1.62303e-014   XYZ
    dof rx rz
    limits (-45.0 45.0)
           (-45.0 45.0)
  end
:hierarchy
  begin
    root lhipjoint rhipjoint lowerback
    lhipjoint lfemur
    lfemur ltibia
    ltibia lfoot
    lfoot ltoes
    rhipjoint rfemur
    rfemur rtibia
    rtibia rfoot
    rfoot rtoes
    lowerback upperback
    upperback thorax
    thorax lowerneck lclavicle rclavicle
    lowerneck upperneck
    upperneck head
    lclavicle lhumerus
    lhumerus lradius
    lradius lwrist
    lwrist lhand lthumb
    lhand lfingers
    rclavicle rhumerus
    rhumerus rradius
    rradius rwrist
    rwrist rhand rthumb
    rhand rfingers
  end

#!OML:ASF G:\JayActor3\Patient Classification 1\Patient 1\Session 6\male.ASF
:FULLY-SPECIFIED
:DEGREES
96
root 49.9685 15.9635 17.5387 181.293 -37.0445 -179.016
lowerback -4.46708 -0.534894 -1.27212
upperback 2.54481 -0.60606 -1.09949
thorax 5.14237 -0.335957 -0.480077
lowerneck -8.6964 -0.237574 2.44296
upperneck 14.5698 -1.30231 2.2015
head 5.84349 -0.449487 0.181366
rclavicle -3.926e-015 -3.18055e-015
rhumerus -31.5797 -12.9018 -82.2305
rradius 29.6361
rwrist 2.00846
rhand -19.1567 -8.39048
rfingers 7.12502
rthumb 7.15389 -38.2496
lclavicle -3.926e-015 -3.18055e-015
lhumerus -25.1174 2.34554 85.8183
lradius 24.2824
lwrist 16.4347
lhand -17.977 13.9924
lfingers 7.12502
lthumb 8.29255 43.8096
rfemur -15.9298 6.09937 18.2364
rtibia 38.3539
rfoot -23.6023 -10.4018
rtoes -1.15714
lfemur -6.92987 8.61704 -20.9976
ltibia 26.1129
lfoot -21.2521 0.749921
ltoes 9.4079
97
root 49.9701 15.9641 17.5383 181.343 -37.0885 -179.075
lowerback -4.47408 -0.517039 -1.30289
upperback 2.55114 -0.579102 -1.13325
thorax 5.15295 -0.323429 -0.495607
lowerneck -8.66674 -0.242107 2.47701
upperneck 14.6008 -1.30845 2.15809
head 5.84764 -0.454251 0.161621
rclavicle -5.76476e-015 -1.43125e-014
rhumerus -31.5762 -12.9195 -82.2524
rradius 29.681
rwrist 1.986
rhand -19.1565 -8.38705
rfingers 7.12502
rthumb 7.15405 -38.2461
lclavicle -5.76476e-015 -1.43125e-014
lhumerus -25.1693 2.35811 85.8033
lradius 24.2623
lwrist 16.4024
lhand -17.9778 14.0182
lfingers 7.12502
lthumb 8.29177 43.8355
rfemur -15.9532 6.08696 18.1894
rtibia 38.376
rfoot -23.622 -10.4189
rtoes -1.15575
lfemur -6.93224 8.61952 -21.0433
ltibia 26.0686
lfoot -21.2078 0.701405
ltoes 9.47693
98
root 49.9718 15.9646 17.538 181.395 -37.1389 -179.135
lowerback -4.48515 -0.498227 -1.33552
upperback 2.5569 -0.550626 -1.1675
thorax 5.16528 -0.310213 -0.510493
lowerneck -8.63004 -0.240498 2.49998
upperneck 14.6325 -1.30923 2.1419
head 5.8511 -0.455296 0.152661
rclavicle -7.58364e-014 1.35174e-014
rhumerus -31.5767 -12.9538 -82.2677
rradius 29.7196
rwrist 1.97536
rhand -19.1509 -8.37985
rfingers 7.12502
rthumb 7.15948 -38.2387
lclavicle -7.58364e-014 1.35174e-014
lhumerus -25.2244 2.37283 85.7854
lradius 24.2437
lwrist 16.371
lhand -17.9643 14.0537
lfingers 7.12502
lthumb 8.30479 43.8704
rfemur -15.977 6.072 18.1419
rtibia 38.3987
rfoot -23.6438 -10.4403
rtoes -1.15509
lfemur -6.93788 8.62648 -21.0889
ltibia 26.0252
lfoot -21.1596 0.64536
ltoes 9.54208
99
root 49.9736 15.9652 17.5376 181.449 -37.1934 -179.196
lowerback -4.49629 -0.480958 -1.37445
upperback 2.56158 -0.523943 -1.19711
thorax 5.17665 -0.298162 -0.517172
lowerneck -8.5901 -0.235492 2.50949
upperneck 14.6678 -1.30536 2.13631
head 5.85527 -0.454109 0.149589
rclavicle 2.5196e-014 1.98785e-014
rhumerus -31.5774 -12.9896 -82.2742
rradius 29.7534
rwrist 1.97309
rhand -19.1361 -8.36351
rfingers 7.12502
rthumb 7.17374 -38.2219
lclavicle 2.5196e-014 1.98785e-014
lhumerus -25.2819 2.40302 85.7683
lradius 24.2263
lwrist 16.3399
lhand -17.953 14.076
lfingers 7.12502
lthumb 8.31572 43.8923
rfemur -16.0025 6.05395 18.0937
rtibia 38.4215
rfoot -23.6657 -10.4639
rtoes -1.16207
lfemur -6.9487 8.63222 -21.1343
ltibia 25.9833
lfoot -21.1089 0.584622
ltoes 9.61791
100
root 49.9755 15.966 17.5375 181.519 -37.2459 -179.259
lowerback -4.5232 -0.467473 -1.41591
upperback 2.56829 -0.501865 -1.22178
thorax 5.19919 -0.288569 -0.517919
lowerneck -8.56743 -0.222378 2.502
upperneck 14.7098 -1.29048 2.14287
head 5.86467 -0.447264 0.15391
rclavicle 9.39258e-014 -6.36111e-015
rhumerus -31.5626 -13.0109 -82.2805
rradius 29.7828
rwrist 1.97235
rhand -19.1139 -8.33767
rfingers 7.12502
rthumb 7.19516 -38.1953
lclavicle 9.39258e-014 -6.36111e-015
lhumerus -25.3279 2.45855 85.7499
lradius 24.2081
lwrist 16.312
lhand -17.9537 14.0759
lfingers 7.12502
lthumb 8.31501 43.8922
rfemur -16.0462 6.03507 18.042
rtibia 38.4463
rfoot -23.6849 -10.4849
rtoes -1.16581
lfemur -6.97732 8.63249 -21.185
ltibia 25.9425
lfoot -21.0572 0.533101
ltoes 9.6858
101
root 49.9774 15.9667 17.5376 181.598 -37.2968 -179.322
lowerback -4.55688 -0.457872 -1.4602
upperback 2.5779 -0.48475 -1.2406
thorax 5.22871 -0.281654 -0.511559
lowerneck -8.57029 -0.201505 2.48111
upperneck 14.767 -1.26502 2.15377
head 5.88336 -0.43517 0.162511
rclavicle 3.8266e-015 -2.14687e-014
rhumerus -31.5351 -13.004 -82.2891
rradius 29.8134
rwrist 1.9611
rhand -19.0901 -8.30951
rfingers 7.12502
rthumb 7.21817 -38.1664
lclavicle 3.8266e-015 -2.14687e-014
lhumerus -25.3634 2.54221 85.7311
lradius 24.1897
lwrist 16.2816
lhand -17.9702 14.08
lfingers 7.12502
lthumb 8.29911 43.897
rfemur -16.1012 6.01494 17.988
rtibia 38.473
rfoot -23.703 -10.5025
rtoes -1.1632
lfemur -7.01508 8.62814 -21.2392
ltibia 25.9024
lfoot -21.0087 0.487068
ltoes 9.7571
102
root 49.9792 15.9673 17.5379 181.681 -37.3464 -179.385
lowerback -4.59446 -0.450422 -1.50366
upperback 2.59182 -0.470523 -1.25577
thorax 5.26501 -0.276258 -0.502203
lowerneck -8.58281 -0.183191 2.4574
upperneck 14.8286 -1.24078 2.15218
head 5.90497 -0.424468 0.167548
rclavicle 9.12919e-014 1.59028e-015
rhumerus -31.4982 -12.9662 -82.3033
rradius 29.8486
rwrist 1.93103
rhand -19.0662 -8.27578
rfingers 7.12502
rthumb 7.24122 -38.1319
lclavicle 9.12919e-014 1.59028e-015
lhumerus -25.3921 2.64306 85.7131
lradius 24.1759
lwrist 16.2544
lhand -18.0018 14.0755
lfingers 7.12502
lthumb 8.26856 43.8937
rfemur -16.1636 5.99155 17.932
rtibia 38.5028
rfoot -23.7212 -10.5122
rtoes -1.15104
lfemur -7.05609 8.61458 -21.2968
ltibia 25.8616
lfoot -20.9637 0.452428
ltoes 9.82634
103
root 49.981 15.9679 17.5383 181.765 -37.4009 -179.449
lowerback -4.63172 -0.443174 -1.54609
upperback 2.61022 -0.456584 -1.2715
thorax 5.30578 -0.271048 -0.494073
lowerneck -8.60278 -0.169212 2.43775
upperneck 14.8935 -1.22182 2.14185
head 5.92882 -0.416597 0.168754
rclavicle 1.87355e-014 7.95139e-016
rhumerus -31.4582 -12.9129 -82.3238
rradius 29.8908
rwrist 1.88757
rhand -19.0409 -8.23654
rfingers 7.12502
rthumb 7.2657 -38.0918
lclavicle 1.87355e-014 7.95139e-016
lhumerus -25.4113 2.73621 85.6944
lradius 24.1632
lwrist 16.2345
lhand -18.0338 14.0539
lfingers 7.12502
lthumb 8.23771 43.8733
rfemur -16.2275 5.9644 17.8754
rtibia 38.5345
rfoot -23.7449 -10.5172
rtoes -1.11365
lfemur -7.09748 8.59699 -21.3552
ltibia 25.8187
lfoot -20.9184 0.417017
ltoes 9.90513
104
root 49.983 15.9683 17.5387 181.839 -37.4631 -179.512
lowerback -4.65866 -0.430957 -1.58351
upperback 2.63518 -0.436417 -1.29377
thorax 5.34743 -0.262622 -0.494926
lowerneck -8.62274 -0.168557 2.44082
upperneck 14.9611 -1.22136 2.11164
head 5.95332 -0.417946 0.158547
rclavicle 6.38099e-014 0
rhumerus -31.4208 -12.8698 -82.3522
rradius 29.9392
rwrist 1.83201
rhand -19.0257 -8.20564
rfingers 7.12502
rthumb 7.28038 -38.0604
lclavicle 6.38099e-014 0
lhumerus -25.4293 2.79566 85.6743
lradius 24.1633
lwrist 16.2256
lhand -18.0442 14.0566
lfingers 7.12502
lthumb 8.2277 43.8764
rfemur -16.2804 5.93294 17.8206
rtibia 38.5675
rfoot -23.7741 -10.5202
rtoes -1.05895
lfemur -7.12786 8.57976 -21.4107
ltibia 25.7727
lfoot -20.869 0.376026
ltoes 9.97449
105
root 49.9852 15.9683 17.5389 181.895 -37.532 -179.575
lowerback -4.66695 -0.415258 -1.61814
upperback 2.66685 -0.412209 -1.32018
thorax 5.3854 -0.252177 -0.501135
lowerneck -8.63339 -0.177193 2.45381
upperneck 15.0225 -1.23345 2.07496
head 5.97417 -0.425523 0.143729
rclavicle -5.62064e-014 4.29375e-014
rhumerus -31.3881 -12.8396 -82.3823
rradius 29.9888
rwrist 1.77973
rhand -19.0169 -8.18732
rfingers 7.12502
rthumb 7.28884 -38.0418
lclavicle -5.62064e-014 4.29375e-014
lhumerus -25.4531 2.83445 85.6517
lradius 24.1778
lwrist 16.2309
lhand -18.0373 14.0664
lfingers 7.12502
lthumb 8.23437 43.886
rfemur -16.3115 5.90005 17.7689
rtibia 38.5998
rfoot -23.8115 -10.521
rtoes -0.98461
lfemur -7.13633 8.56569 -21.462
ltibia 25.7241
lfoot -20.8221 0.327998
ltoes 10.0426
106
root 49.9875 15.9681 17.5389 181.938 -37.6072 -179.638
lowerback -4.66209 -0.398259 -1.65684
upperback 2.70478 -0.386415 -1.34628
thorax 5.42245 -0.241232 -0.504527
lowerneck -8.65267 -0.18665 2.46684
upperneck 15.0875 -1.24807 2.04442
head 5.99769 -0.433753 0.130605
rclavicle 8.05078e-014 1.27222e-014
rhumerus -31.352 -12.8248 -82.4093
rradius 30.0324
rwrist 1.73923
rhand -19.0132 -8.17946
rfingers 7.12502
rthumb 7.29243 -38.0338
lclavicle 8.05078e-014 1.27222e-014
lhumerus -25.4814 2.85995 85.631
lradius 24.2048
lwrist 16.256
lhand -17.9897 14.1145
lfingers 7.12502
lthumb 8.28029 43.9323
rfemur -16.3261 5.86495 17.7196
rtibia 38.6307
rfoot -23.8515 -10.5255
rtoes -0.914638
lfemur -7.12875 8.5671 -21.5088
ltibia 25.6736
lfoot -20.7774 0.263683
ltoes 10.1104
107
root 49.99 15.9679 17.5386 181.967 -37.6883 -179.703
lowerback -4.63859 -0.38327 -1.70539
upperback 2.74594 -0.363405 -1.36777
thorax 5.45235 -0.232181 -0.497741
lowerneck -8.67295 -0.196622 2.47534
upperneck 15.158 -1.26284 2.01238
head 6.02312 -0.442402 0.117705
rclavicle 1.71452e-013 -3.33958e-014
rhumerus -31.314 -12.8198 -82.4275
rradius 30.0645
rwrist 1.71771
rhand -19.0144 -8.18119
rfingers 7.12502
rthumb 7.29129 -38.0356
lclavicle 1.71452e-013 -3.33958e-014
lhumerus -25.5216 2.89617 85.6123
lradius 24.2414
lwrist 16.2932
lhand -17.9194 14.1706
lfingers 7.12502
lthumb 8.34814 43.9856
rfemur -16.3204 5.8306 17.6729
rtibia 38.659
rfoot -23.893 -10.5398
rtoes -0.860956
lfemur -7.1047 8.57649 -21.5508
ltibia 25.6221
lfoot -20.7305 0.18271
ltoes 10.1923
